<?xml version="1.0" encoding="utf-8"?>
<!-- Generator: Adobe Illustrator 27.5.0, SVG Export Plug-In . SVG Version: 6.00 Build 0)  -->
<svg version="1.1" id="Layer_1" xmlns="http://www.w3.org/2000/svg" xmlns:xlink="http://www.w3.org/1999/xlink" x="0px" y="0px"
	 viewBox="0 0 2807 1604" style="enable-background:new 0 0 2807 1604;" xml:space="preserve">
<g>
	<g>
		<defs>
			<rect id="SVGID_1_" width="2806.243" height="1603.568"/>
		</defs>
		<use xlink:href="#SVGID_1_"  style="overflow:visible;fill:#FFFFFF;"/>
		<clipPath id="SVGID_00000007405542083813054810000000962301496286109067_">
			<use xlink:href="#SVGID_1_"  style="overflow:visible;"/>
		</clipPath>
		
			<linearGradient id="SVGID_00000103945352873332308080000010462645082415498112_" gradientUnits="userSpaceOnUse" x1="2319.877" y1="438.6908" x2="1339.9193" y2="1188.5079">
			<stop  offset="0" style="stop-color:#FFD109"/>
			<stop  offset="1" style="stop-color:#FFFFFF"/>
		</linearGradient>
		
			<path style="clip-path:url(#SVGID_00000007405542083813054810000000962301496286109067_);fill:url(#SVGID_00000103945352873332308080000010462645082415498112_);" d="
			M2940.48,1562.718c0.314-1.162,0.579-2.015,0.783-2.676c0.435-1.409,0.811-2.626,0.778-4.145l-0.545-66.315
			c-0.539-64.605-1.077-129.202-1.407-193.835c-0.062-10.96-6.445-15.63-12.423-19.147c-36.737-21.71-73.441-43.472-110.149-65.236
			c-35.644-21.134-71.293-42.269-106.984-63.365c-2.379-1.411-4.924-2.22-7.616-3.076c-1.304-0.415-2.733-0.867-4.313-1.445
			l-1.127-0.413l-0.008-0.918l2.375-1.122c1.643-0.776,3.01-1.388,4.19-1.914c2.257-1.01,3.91-1.765,5.447-2.675l64.742-38.143
			c51.282-30.228,102.552-60.451,153.934-90.457c11.205-6.56,12.806-15.396,12.87-23.968c0.431-51.745,1.03-103.517,1.629-155.302
			c0.361-31.18,0.722-62.367,1.046-93.555c0.051-3.077-0.371-6.011-0.818-9.118c-0.196-1.355-0.402-2.773-0.575-4.291l-0.11-0.964
			l4.062-2.347l-1.663-1.101l-0.064-6.802l-1.551-166.195l-1.006-108.034l-0.029-3.112l-2.676-1.588
			c-69.242-41.074-137.868-81.741-207.667-123.104l-29.223-17.317l-0.795-0.47c1.153-0.344,2.008-0.571,2.673-0.746
			c1.351-0.36,2.419-0.644,3.577-1.301l50.24-29.578c57.969-34.134,115.925-68.258,173.962-102.272
			c7.645-4.488,11.098-10.68,11.199-20.081c0.42-43.559,0.903-87.111,1.384-130.662c0.46-41.507,0.92-83.014,1.325-124.518
			c0.033-2.707-0.708-5.088-1.424-7.389c-0.279-0.897-0.573-1.831-0.816-2.827l-0.721-2.939l3.191-2.039l-7.104-4.684
			c-1.846-1.217-3.495-2.364-5.036-3.435c-2.682-1.864-5.214-3.624-7.912-5.148l-57.97-32.741
			c-51.138-28.865-104.018-58.715-155.834-88.362c-5.483-3.133-10.263-4.592-15.042-4.592c-4.729,0-9.457,1.427-14.879,4.491
			c-54.458,30.927-109.995,62.063-163.702,92.176l-49.187,27.587c-2.72,1.521-5.432,3.091-8.574,4.91l-6.456,3.725l-4.665,2.675
			l-2.353-1.474c-1.724-1.08-3.295-2.086-4.771-3.031c-3.127-2.002-5.842-3.737-8.638-5.318
			c-19.68-11.135-39.371-22.25-59.064-33.364c-49.936-28.185-101.573-57.329-152.148-86.336c-6.333-3.661-11.841-5.37-17.316-5.37
			c-5.381,0-10.754,1.631-16.908,5.135c-52.113,29.806-105.352,59.7-156.841,88.61c-18.237,10.24-36.474,20.48-54.702,30.738
			c-3.967,2.242-7.886,4.51-13.886,7.983l-3.449,1.997l-3.36-1.992l0.012,1.326c-2.059-1.357-3.792-2.538-5.33-3.586
			c-2.843-1.938-5.066-3.443-7.383-4.765c-20.09-11.365-40.174-22.705-60.259-34.046c-50.896-28.738-103.524-58.454-155.109-87.954
			c-5.237-3.02-9.905-4.431-14.67-4.431c-4.828,0-9.703,1.495-15.34,4.706c-48.457,27.492-97.027,54.773-145.595,82.054
			c-23.846,13.394-47.693,26.788-71.524,40.206c-2.419,1.354-4.368,3.038-6.626,4.989c-1.072,0.928-2.248,1.944-3.618,3.041
			l-2.19,1.751l-0.063-0.751l-0.817,0.386l-2.222-1.16l-0.018,0.44l-1.362-0.94c-1.345-0.929-2.5-1.76-3.546-2.511
			c-2.07-1.489-3.859-2.774-5.846-3.905c-22.435-12.698-44.872-25.37-67.311-38.042c-49.873-28.167-101.442-57.293-152.006-86.16
			c-4.359-2.491-8.493-3.702-12.638-3.702c-5.757,0-10.778,2.414-14.511,4.518c-49.984,28.237-100.064,56.337-150.141,84.434
			l-65.537,36.788c-2.857,1.585-5.705,3.243-9.687,5.562l-3.528,2.052l-2.932,1.704l-2.153-1.277l-0.11,2.594l-2.336,1.357
			l2.211,1.525l-0.161,3.749c-0.128,2.946-0.267,5.482-0.389,7.754c-0.229,4.219-0.409,7.568-0.392,10.925l0.585,63.058
			c0.563,58.932,1.145,119.871,1.346,179.813c0.024,12.644,4.623,20.452,15.873,26.939c43.897,25.617,88.397,52.038,131.43,77.589
			l36.878,21.885l31.262,18.54l25.026,14.846l-0.756,0.434l-15.272,8.759c-13.546,7.761-26.203,15.012-38.772,22.395
			c-24.342,14.263-48.68,28.553-73.017,42.845c-32.792,19.255-65.588,38.511-98.414,57.715c-7.609,4.438-15.051,9.846-15.121,22.648
			c-0.395,52.742-0.993,105.486-1.59,158.237c-0.367,32.39-0.735,64.784-1.053,97.184c-0.044,2.738,0.725,5.175,1.47,7.531
			c0.295,0.934,0.609,1.915,0.874,2.973l1.678,6.687l6.161-3.095c1.386-0.696,2.67-1.316,3.876-1.898
			c2.686-1.296,5.006-2.415,7.317-3.808l60-35.44c50.631-29.923,102.986-60.864,154.62-91.059c7.105-4.161,11.138-9.176,12.81-16.35
			l0.038,4.178l0.027,3.112l2.679,1.588c78.946,46.804,156.867,92.971,237.602,140.789l8.429,4.992l-0.011-1.071l1.049,0.693
			c1.447,0.957,2.689,1.812,3.808,2.582c2.139,1.472,3.879,2.658,5.693,3.683l59.91,33.84
			c51.86,29.278,105.484,59.552,158.052,89.564c4.82,2.746,9.322,4.08,13.77,4.08c1.972,0,3.954-0.259,5.998-0.794
			c-4.048,4.1-6.899,9.632-6.963,17.996c-0.399,55.602-1.04,111.202-1.681,166.804c-0.327,28.477-0.656,56.954-0.95,85.432
			c-0.037,2.801,0.569,5.453,1.155,8.017c0.277,1.221,0.574,2.507,0.812,3.891l0.674,3.939l-2.449,1.798l1.443,0.922l-1.827-0.355
			l0.063,6.765l0.71,77.118l1.813,195.277l0.029,3.114l2.678,1.586c52.036,30.826,103.648,61.436,156.154,92.574l81.412,48.279
			l8.429,4.997l-0.011-1.191l0.806,0.514c1.842,1.173,3.49,2.25,5.018,3.248c3.104,2.026,5.738,3.742,8.463,5.296
			c20.273,11.469,40.543,22.907,60.811,34.344c49.773,28.086,101.239,57.126,151.65,86.025c5.694,3.264,10.678,4.784,15.688,4.784
			c4.965,0,9.929-1.502,15.621-4.725c52.752-29.986,106.568-60.176,158.612-89.371l54.243-30.445
			c2.573-1.415,5.155-2.906,8.328-4.739l6.218-3.578l3.699-2.114l0.665,0.368l0.081-0.795l0.249-0.142l2.077,1.389
			c1.476,0.987,2.733,1.871,3.869,2.668c2.083,1.463,3.802,2.658,5.616,3.687c20.11,11.379,40.228,22.741,60.348,34.104
			c52.209,29.488,106.198,59.978,159.126,90.261c4.292,2.448,8.394,3.637,12.546,3.637l0,0c5.969,0,11.224-2.53,16.013-5.263
			c48.992-27.695,98.078-55.255,147.167-82.818l64.509-36.234c2.826-1.557,5.665-3.207,9.128-5.221l6.626-3.836l7.73-4.444
			l-4.172-2.779L2940.48,1562.718z M2935.503,983.825c-0.064,8.698-1.986,14.469-10.131,19.239
			c-73.01,42.638-145.794,85.709-218.707,128.618c-2.201,1.305-4.683,2.222-9.181,4.347c-0.26-6.366-0.659-10.454-0.593-14.522
			c0.917-82.43,1.974-164.881,2.685-247.342c0.085-8.653,2.093-14.328,10.217-19.097c72.547-42.391,144.845-85.278,217.22-127.981
			c2.708-1.576,5.599-2.741,9.808-4.856c0.56,4.877,1.424,8.783,1.358,12.722C2937.316,817.942,2936.194,900.911,2935.503,983.825z
			 M1720.431,579.342c-2.644-0.991-5.228-1.477-7.811-1.477c-2.982,0-5.988,0.644-9.237,1.999c4.865-3.962,7.695-8.734,8.835-14.915
			C1713.431,570.69,1716.068,575.315,1720.431,579.342z M1704.32,2.453c3.088,1.016,6.074,1.504,9.087,1.504
			c2.759,0,5.497-0.405,8.363-1.263c-4.658,3.959-7.36,8.687-8.428,14.744C1712.03,11.387,1709.141,6.595,1704.32,2.453z
			 M1716.939,556.692c-0.184-80.918-1.175-161.827-1.855-242.746c-0.043-5.081,0.333-10.174,0.581-17.069
			c5.213,2.417,8.966,3.852,12.355,5.859c71.446,42.282,142.826,84.641,214.304,126.891c6.679,3.959,11.048,7.789,11.115,16.852
			c0.378,84.588,1.326,169.164,2.048,253.784c0.043,2.979-0.507,6-1.047,11.502c-6.948-3.884-11.555-6.322-16.022-8.998
			c-69.191-40.956-138.21-82.139-207.616-122.706C1721.062,574.365,1716.982,568.323,1716.939,556.692z M2702.895,579.346
			c-2.507-0.784-4.947-1.163-7.413-1.163c-2.289,0-4.593,0.338-6.99,1.036c4.149-3.736,6.051-7.988,6.92-12.271
			C2696.435,572.807,2699.42,576.581,2702.895,579.346z M2688.736,2.859c2.742,0.842,5.387,1.248,8.032,1.248
			c3.003-0.001,5.987-0.518,9.099-1.598c-4.781,3.518-7.624,7.791-8.86,13.409C2695.917,9.555,2692.547,5.66,2688.736,2.859z
			 M2707.366,587.387c71.598,41,143.562,81.394,215.385,122.048c3.56,1.986,6.861,4.456,13.022,8.535
			c-7.055,4.077-11.513,6.656-15.989,9.224c-70.151,39.338-140.411,78.514-210.346,118.24c-5.103,2.888-9.573,4.459-14.133,4.459
			c-4.128,0.001-8.329-1.287-13.142-4.049c-70.659-40.525-141.737-80.359-212.634-120.461c-4.002-2.277-7.79-4.953-13.142-8.394
			c4.337-3.129,7.315-5.794,10.724-7.726c71.933-40.525,143.95-80.811,215.742-121.584c4.571-2.58,8.565-3.972,12.629-3.972
			C2699.217,583.707,2703.01,584.882,2707.366,587.387z M2690.6,558.602c-0.064,8.426-1.434,14.522-9.786,19.366
			c-73.096,42.66-145.923,85.806-218.837,128.779c-2.19,1.305-4.629,2.211-8.469,4.036c-0.626-4.888-1.586-8.751-1.532-12.624
			c0.874-83.034,2.094-166.089,2.59-249.122c0.086-10.477,3.884-15.979,12.601-21.072c71.726-41.884,143.184-84.264,214.748-126.384
			c2.644-1.576,5.556-2.654,10.659-5.006c0.345,6.321,0.777,10.41,0.745,14.478C2692.412,393.571,2691.366,476.097,2690.6,558.602z
			 M2449.83,441.351c-0.883-4.862-3.097-8.681-6.969-12.003c2.336,0.762,4.637,1.137,6.945,1.137c2.19,0,4.274-0.35,6.223-0.9
			C2452.84,432.94,2450.836,436.755,2449.83,441.351z M2451.501,1001.818l2.095,1.242c-1.526-0.364-3.052-0.544-4.592-0.544
			c-1.803,0-3.526,0.256-5.149,0.67c2.396-2.64,4.002-5.703,4.906-9.355l0.03,3.284l0.029,3.115L2451.501,1001.818z
			 M2677.296,299.811c-71.856,40.449-143.831,80.746-215.643,121.314c-4.177,2.359-7.913,3.834-11.847,3.835
			c-3.047,0-6.212-0.885-9.796-2.929c-72.999-41.678-146.226-82.882-219.355-124.215c-2.643-1.49-5.04-3.42-10.099-6.927
			c5.847-3.367,9.44-5.513,13.087-7.52c71.909-40.363,143.841-80.682,215.687-121.206c4.177-2.363,7.926-3.859,11.89-3.859
			c3.041,0,6.209,0.88,9.796,2.921c72.967,41.7,146.182,82.872,219.333,124.194c2.633,1.51,5.039,3.41,9.041,6.172
			C2684.633,294.87,2681.149,297.676,2677.296,299.811z M2219.23,302.876c71.932,42.542,143.798,85.277,215.817,127.711
			c6.656,3.917,9.667,8.049,9.71,16.045c0.507,85.147,1.413,170.34,2.169,255.509c0.01,2.039-0.378,4.122-0.82,8.826
			c-41.096-22.139-79.419-46.394-118.498-69.257c-39.413-23.11-78.621-46.577-118.186-70.108
			c-0.841-91.039-1.65-181.431-2.503-273.969C2212.141,299.834,2215.95,300.935,2219.23,302.876z M2443.473,717.193
			c-13.293,7.67-24.104,13.993-35.032,20.111c-63.236,35.593-126.666,70.841-189.675,106.78c-5.643,3.219-10.553,4.98-15.581,4.98
			c-4.528,0-9.153-1.428-14.5-4.505c-69.653-40.169-139.804-79.441-209.783-119.07c-4.457-2.524-8.762-5.307-14.501-8.825
			c3.85-3.01,6.312-5.632,9.3-7.293c72.363-40.761,144.887-81.307,217.11-122.307c4.563-2.579,8.557-3.958,12.615-3.958
			c3.753,0,7.561,1.179,11.931,3.677c71.608,41,143.562,81.416,215.375,122.027C2434.291,710.815,2437.561,713.286,2443.473,717.193
			z M2203.869,568.324l0.03,3.33l0.028,3.108l2.672,1.589l3.777,2.249c-2.348-0.687-4.638-1.018-6.95-1.018
			c-1.645,0-3.297,0.173-4.983,0.528C2201.446,575.096,2203.039,571.732,2203.869,568.324z M2202.421,6.254l-2.082-1.235
			c1.678,0.432,3.35,0.644,5.035,0.644h0c1.515-0.001,3.037-0.174,4.596-0.531c-2.6,2.823-4.035,5.924-4.813,9.063l-0.03-3.24
			l-0.028-3.114L2202.421,6.254z M2199.194,560.447c-0.074,7.413-1.671,12.677-8.653,16.809
			c-74.36,43.502-148.523,87.339-222.741,131.079c-1.327,0.819-2.915,1.122-6.484,2.449c-0.316-5.794-0.746-9.884-0.69-13.919
			c0.905-82.451,1.985-164.859,2.696-247.31c0.086-8.62,1.911-14.447,10.057-19.214c73.02-42.683,145.794-85.775,218.621-128.758
			c2.233-1.327,4.671-2.288,8.21-3.972c0.69,4.057,1.791,7.444,1.737,10.768C2201.082,392.416,2200.014,476.442,2199.194,560.447z
			 M1958.529,441.629c-1.193-6.556-4.704-10.642-8.722-13.683c2.821,0.874,5.547,1.295,8.291,1.295h0.001
			c3.114-0.001,6.187-0.531,9.454-1.667C1962.025,431.703,1959.577,436.57,1958.529,441.629z M2182.882,300.599
			c-70.045,39.445-140.216,78.632-210.034,118.433c-5.341,3.04-9.991,4.684-14.747,4.684c-4.361,0.001-8.812-1.381-13.974-4.338
			c-70.506-40.611-141.521-80.358-212.376-120.451c-3.601-2.008-6.979-4.424-11.77-7.521c2.882-2.47,4.791-4.715,7.196-6.074
			c74.144-41.733,148.386-83.304,222.528-125.133c3.276-1.866,6.27-2.918,9.328-2.918c2.604,0,5.256,0.761,8.173,2.433
			c74.865,42.562,149.828,84.921,224.759,127.377c1.283,0.755,2.298,1.975,5.741,4.995
			C2191.771,295.507,2187.327,298.086,2182.882,300.599z M1956.847,991.904c0.986,6.029,4.033,9.867,7.589,12.66
			c-2.536-0.796-4.996-1.179-7.48-1.179c-2.435,0-4.883,0.38-7.436,1.168C1953.304,1001.098,1955.678,997.004,1956.847,991.904z
			 M1956.956,1008.908c3.739,0,7.538,1.172,11.899,3.66c71.619,40.998,143.561,81.414,215.374,122.068
			c3.539,2.008,6.819,4.435,13.056,8.546c-7.068,4.067-11.5,6.668-15.978,9.193c-70.163,39.359-140.412,78.523-210.347,118.26
			c-5.11,2.906-9.571,4.483-14.127,4.483c-4.119,0-8.316-1.29-13.138-4.051c-70.668-40.524-141.738-80.391-212.642-120.483
			c-4.015-2.277-7.835-4.909-13.186-8.329c4.338-3.183,7.315-5.847,10.714-7.768c71.953-40.504,143.96-80.812,215.719-121.584
			C1948.876,1010.303,1952.88,1008.908,1956.956,1008.908z M2189.808,1131.94c-72.858-43.104-145.665-86.324-218.535-129.438
			c-5.891-3.443-9.17-7.175-9.235-14.695c-0.475-86.228-1.349-172.476-2.072-258.703c-0.011-1.521,0.39-3.065,1.081-8.125
			c79.915,47.332,157.943,93.585,236.94,140.4c0.831,90.963,1.672,181.799,2.535,274.435
			C2196.022,1134.227,2192.613,1133.58,2189.808,1131.94z M2203.51,861.328l-0.029-3.114l-2.679-1.589l-5.216-3.09
			c2.568,0.709,5.076,1.053,7.599,1.053h0c2.845,0,5.665-0.431,8.626-1.344c-4.765,4.199-7.119,8.889-8.25,13.724L2203.51,861.328z
			 M2210.23,1430.035c-2.603-0.938-5.149-1.396-7.701-1.396c-3.336,0-6.386,0.786-9.147,1.889c4.99-3.758,7.819-8.304,8.792-14.153
			C2203.457,1421.789,2206.053,1426.189,2210.23,1430.035z M2208.107,876.527c0.086-10.444,2.686-17.1,12.439-22.733
			c71.36-41.473,142.342-83.595,213.444-125.5c3.096-1.822,6.451-3.279,11.015-5.642c0.767,4.305,1.888,7.639,1.866,10.95
			c-0.885,84.059-1.963,168.16-2.729,252.274c-0.064,8.167-2.309,13.464-9.774,17.801c-73.033,42.834-145.848,85.97-218.753,128.985
			c-2.21,1.306-4.638,2.191-9.45,4.392c-0.303-6.959-0.702-11.544-0.679-16.131
			C2206.403,1039.455,2207.524,958.017,2208.107,876.527z M2218.605,1134.993c73.269-41.16,146.56-82.235,219.808-123.537
			c3.699-2.082,7.065-3.417,10.591-3.417c2.612,0,5.311,0.732,8.3,2.436c74.402,42.347,148.935,84.426,223.401,126.599
			c1.727,1.004,3.205,2.438,7.079,5.46c-6.431,3.733-10.887,6.355-15.44,8.911c-70.033,39.391-140.238,78.546-210.034,118.424
			c-5.221,2.996-9.756,4.509-14.306,4.509c-4.542,0-9.1-1.508-14.371-4.553c-70.108-40.33-140.67-79.84-211.036-119.675
			c-4.025-2.265-7.833-4.93-13.303-8.404C2213.177,1138.899,2215.713,1136.644,2218.605,1134.993z M2454.316,997.064
			c-0.831-90.77-1.661-181.529-2.502-272.525c12.18,2.61,211.964,119.285,237.621,138.49c0.798,90.014,1.618,180.644,2.47,274.759
			C2611.062,1089.916,2533.142,1043.749,2454.316,997.064z M2694.981,865.508l-0.022-2.527l-0.025-2.735l-2.19-1.639
			c-1.64-1.227-4.196-2.976-7.537-5.168c3.455,1.338,6.752,1.976,10.096,1.976l0,0c1.898,0,3.81-0.214,5.77-0.654
			C2697.691,858.088,2695.904,861.744,2694.981,865.508z M2696.371,1427.019c1.238,0.733,2.473,1.467,3.71,2.2
			c-2.282-0.653-4.523-0.975-6.752-0.975c-1.794,0-3.579,0.199-5.409,0.612c3.101-3.165,4.812-6.733,5.706-10.727l0.037,4.188
			l0.028,3.114L2696.371,1427.019z M2936.454,436.209c0.851,91.018,1.682,181.863,2.556,274.229
			c-4.024-1.241-7.035-1.553-9.441-2.999c-73.302-43.329-146.549-86.841-219.883-130.139c-5.946-3.549-9.096-7.39-9.129-14.834
			c-0.507-86.227-1.359-172.444-2.06-258.671c-0.011-1.522,0.377-3.065,1.068-8.006
			C2779.492,343.152,2857.573,389.417,2936.454,436.209z M2940.423-118.647c-0.831,85.051-1.888,170.112-2.708,255.174
			c-0.075,7.002-2.201,11.696-8.469,15.375c-74.779,43.826-149.42,87.835-224.135,131.812c-0.894,0.508-1.974,0.616-5.308,1.619
			c-0.291-5.33-0.723-9.376-0.669-13.4c0.896-82.97,1.953-165.928,2.664-248.929c0.076-8.264,2.504-13.389,9.884-17.705
			c72.967-42.757,145.731-85.795,218.578-128.801c2.234-1.326,4.661-2.309,8.082-3.992
			C2939.162-124.15,2940.456-121.409,2940.423-118.647z M2472.216-143.678c71.003-39.855,142.094-79.559,212.903-119.771
			c4.448-2.514,8.302-3.776,12.16-3.776c3.891,0,7.786,1.284,12.299,3.862c71.091,40.676,142.537,80.801,213.831,121.119
			c3.938,2.223,7.552,5.04,12.624,8.384c-5.352,3.42-9.074,6.086-13.044,8.319c-70.949,39.963-142.029,79.668-212.763,119.965
			c-4.889,2.785-9.18,4.159-13.457,4.159c-4.406,0-8.798-1.458-13.818-4.332c-70.615-40.47-141.608-80.347-212.429-120.396
			c-3.938-2.222-7.541-5.05-13.292-8.923C2463.455-138.639,2467.813-141.217,2472.216-143.678z M2454.046-127.279
			c3.528,1.036,6.561,1.327,8.934,2.719c73.302,43.34,146.453,86.788,219.743,130.085c5.977,3.518,9.085,7.423,9.128,14.803
			c0.53,86.183,1.36,172.313,2.061,258.497c0.021,1.554-0.465,3.108-1.11,7.1c-5.633-2.881-9.807-4.769-13.724-7.057
			c-70.552-41.809-140.95-83.735-211.652-125.273c-8.07-4.737-11.825-9.701-11.846-19.615
			c-0.335-83.012-1.274-166.046-2.029-249.036C2453.551-118.69,2453.852-122.337,2454.046-127.279z M2450.631,140.497
			c1.045,5.438,3.553,9.757,7.867,13.528c-2.449-0.836-4.859-1.245-7.277-1.245c-3.24,0-6.252,0.767-8.939,1.817
			C2447.469,150.426,2449.708,145.546,2450.631,140.497z M2447.691-128.25c0.323,5.848,0.756,9.948,0.744,14.016
			c-0.938,82.408-1.996,164.848-2.729,247.32c-0.054,8.578-1.769,14.49-9.958,19.313c-73.055,42.563-145.838,85.655-218.74,128.595
			c-2.202,1.306-4.662,2.245-8.221,3.949c-0.68-4.066-1.737-7.444-1.716-10.788c0.853-84.015,1.942-168.031,2.741-252.026
			c0.074-7.412,1.78-12.719,8.74-16.809c74.348-43.535,148.502-87.371,222.721-131.111
			C2442.6-126.577,2444.185-126.923,2447.691-128.25z M1979.786-142.783c70.572-39.715,141.296-79.171,211.566-119.361
			c5.197-2.959,9.702-4.411,14.174-4.411c4.644,0,9.253,1.566,14.567,4.638c70.206,40.265,140.8,79.862,211.242,119.716
			c4.045,2.288,7.909,4.91,13.195,8.222c-3.539,2.946-5.87,5.588-8.762,7.164C2362.435-85.556,2289.058-44.46,2215.756-3.17
			c-3.643,2.074-6.956,3.309-10.382,3.309c-2.703,0.001-5.478-0.768-8.542-2.5c-74.468-42.38-149.097-84.49-223.637-126.719
			c-1.759-1.003-3.292-2.459-7.446-5.631C1971.844-138.241,1975.793-140.527,1979.786-142.783z M2199.604,11.006
			c0.831,91.331,1.684,181.917,2.525,276.172c-80.779-47.872-158.677-94.039-237.588-140.756
			c-0.843-90.737-1.685-181.507-2.547-276.28C2043.26-81.673,2121.264-35.429,2199.604,11.006z M1959.018,146.473l0.028,3.115
			l2.681,1.587c0.651,0.386,1.299,0.768,1.95,1.154c-1.547-0.383-3.09-0.572-4.643-0.572c-1.646,0-3.285,0.209-4.963,0.642
			c2.646-3.026,4.114-6.299,4.912-9.658L1959.018,146.473z M1957.052-114.925c-0.906,83.034-1.951,166.067-2.697,249.133
			c-0.097,8.61-2.06,14.393-10.205,19.172c-72.203,42.186-144.059,84.858-216.055,127.334c-3.031,1.791-6.322,3.109-11.663,5.611
			c-0.367-6.193-0.797-9.828-0.766-13.453c0.917-83.035,2.071-166.068,2.665-249.134c0.076-9.592,3.281-15.17,11.579-20.015
			c71.736-41.861,143.225-84.177,214.801-126.353c3.033-1.79,6.335-3.139,11.059-5.458
			C1956.319-122.757,1957.096-118.841,1957.052-114.925z M1483.893-141.283c72.374-40.75,144.877-81.274,217.144-122.274
			c4.549-2.591,8.542-3.982,12.605-3.982c3.752,0,7.563,1.185,11.93,3.702c71.617,40.956,143.571,81.383,215.372,122.004
			c3.539,2.017,6.831,4.499,12.742,8.383c-13.303,7.639-24.091,14.005-35.022,20.154c-63.246,35.54-126.643,70.789-189.652,106.738
			c-5.654,3.227-10.575,4.992-15.605,4.992c-4.523,0-9.136-1.425-14.453-4.496c-69.212-39.952-138.901-78.945-208.437-118.303
			c-4.93-2.795-9.786-5.676-16.13-9.387C1478.476-137.021,1480.905-139.611,1483.893-141.283z M1470.817-128.908
			c6.136,3.205,10.723,5.308,15.062,7.898c69.687,41.225,139.179,82.764,209.104,123.645c9.818,5.729,13.66,11.889,13.68,23.434
			c0.216,80.962,1.21,161.946,1.911,242.897c0.043,5.081-0.413,10.185-0.67,17.187c-6.139-3.214-10.745-5.351-15.061-7.887
			c-69.664-41.247-139.202-82.774-209.127-123.633c-9.807-5.75-13.583-11.954-13.615-23.477
			c-0.238-80.951-1.209-161.903-1.91-242.93C1470.127-116.803,1470.535-121.863,1470.817-128.908z M1705.687,290.965
			c-2.732,2.6-4.424,5.178-6.808,6.506c-74.208,41.776-148.545,83.379-222.71,125.231c-3.24,1.796-6.177,2.754-9.133,2.754
			c-2.708,0-5.429-0.805-8.41-2.507c-74.954-42.595-149.98-85.008-224.956-127.518c-1.347-0.744-2.427-1.952-5.577-4.509
			c5.244-3.42,8.943-6.096,12.937-8.33c70.549-39.704,141.24-79.171,211.553-119.318c5.315-3.023,9.917-4.594,14.566-4.594
			c4.459,0,8.963,1.444,14.187,4.433c70.142,40.33,140.778,79.893,211.22,119.759
			C1696.633,285.171,1700.518,287.75,1705.687,290.965z M1467.416,139.765c1.299,6.048,4.151,10.837,8.905,14.971
			c-3.145-1.068-6.156-1.58-9.173-1.58c-2.449,0-4.911,0.344-7.462,1.055C1464.497,150.115,1466.608,145.32,1467.416,139.765z
			 M1465-114.234c-0.851,82.505-1.908,165.032-2.676,247.526c-0.055,8.512-1.64,14.457-9.914,19.301
			c-72.644,42.391-145.007,85.299-217.467,128.014c-2.634,1.543-5.493,2.718-10.821,5.319c-0.184-7.822-0.453-12.959-0.41-18.072
			c0.917-80.433,2.092-160.824,2.502-241.258c0.077-11.879,3.42-18.848,14.091-25.074c70.95-41.107,141.425-83.033,212.094-124.669
			c3.098-1.823,6.441-3.15,11.458-5.524C1464.341-122.984,1465.043-118.604,1465-114.234z M995.434-142.103
			c71.899-40.394,143.896-80.671,215.686-121.227c4.175-2.354,7.893-3.806,11.798-3.806c3.077,0,6.271,0.902,9.899,2.975
			c72.946,41.647,146.216,82.828,219.324,124.205c2.653,1.511,5.017,3.42,8.986,6.161c-4.359,3.042-7.445,5.545-10.831,7.477
			c-72.32,40.665-144.737,81.275-217.003,122.069c-4.158,2.333-7.863,3.76-11.743,3.76c-3.1,0-6.311-0.91-9.956-2.993
			c-72.967-41.657-146.193-82.829-219.312-124.174c-2.676-1.532-5.048-3.463-9.991-6.872
			C988.215-137.971,991.798-140.085,995.434-142.103z M1215.856,558.742c-0.063,9.31-2.428,15.277-10.994,20.294
			c-71.716,41.938-143.151,84.329-214.683,126.536c-3.098,1.866-6.464,3.312-10.822,5.502c-0.885-3.528-2.223-6.301-2.18-9.106
			c0.842-85.17,2.008-170.296,2.645-255.446c0.054-9.774,5.264-13.756,12.386-17.91c57.192-33.457,114.288-67.077,171.44-100.565
			c17.154-10.077,34.472-19.907,53.998-31.128c0.4,6.14,0.928,10.239,0.884,14.263
			C1217.625,393.7,1216.526,476.215,1215.856,558.742z M1162.18,253.559c-56.081-33.252-112.089-66.667-168.364-99.509
			c-9.226-5.32-13.089-11.21-13.109-22.172c-0.271-80.973-1.221-161.924-1.931-242.876c-0.023-5.081,0.419-10.141,0.777-18.417
			c80.173,47.57,158.114,93.78,236.67,140.303c0.821,91.147,1.641,181.842,2.492,276.203
			C1197.353,274.425,1179.777,263.981,1162.18,253.559z M1221.797,16.403l-0.05-5.564l-0.028-3.116l-2.681-1.587
			c-1.039-0.616-2.074-1.229-3.113-1.845c1.887,0.498,3.755,0.743,5.626,0.743h0.001c2.376,0,4.623-0.408,6.703-1.033
			C1225.053,7.523,1222.954,11.561,1221.797,16.403z M1226.021,571.582c-0.843-91.558-1.661-181.863-2.492-271.576
			c1.467-0.841,1.908-1.165,2.352-1.295c0.338-0.145,0.777-0.295,1.123-0.295c0.117,0,0.223,0.017,0.311,0.057
			c2.839,1.36,5.741,2.622,8.448,4.165c74.974,44.441,149.959,88.903,225.355,133.613c0.831,91.212,1.639,181.841,2.502,276.117
			C1382.884,664.551,1304.965,618.385,1226.021,571.582z M1466.642,436.202l-0.03-3.113l-2.678-1.588l-2.048-1.214
			c1.721,0.464,3.431,0.694,5.149,0.694h0.002c1.428,0,2.846-0.154,4.286-0.468c-2.496,2.78-3.888,5.814-4.654,8.88
			L1466.642,436.202z M1468.55,699.379c0.897-84.048,1.931-168.02,2.762-252.056c0.086-7.424,1.758-12.667,8.707-16.799
			c74.361-43.491,148.515-87.371,222.743-131.089c1.317-0.767,2.902-1.122,6.421-2.449c0.334,5.825,0.787,9.894,0.744,13.961
			c-0.916,82.43-2.028,164.892-2.644,247.321c-0.074,9.592-3.096,15.202-11.392,20.056
			c-72.127,42.143-144.004,84.685-215.98,127.033c-2.697,1.586-5.567,2.826-9.581,4.78
			C1469.63,706.079,1468.53,702.724,1468.55,699.379z M1711.505,849.961c-3.463,0-7.002-1.058-11.031-3.353
			c-72.491-41.387-145.307-82.321-217.984-123.417c-2.654-1.499-5.124-3.387-9.173-6.063c3.983-2.988,6.811-5.664,10.124-7.531
			c72.804-40.945,145.674-81.728,218.384-122.814c3.856-2.172,7.285-3.394,10.795-3.394c3.01,0,6.079,0.898,9.531,2.866
			c73.464,41.829,147.132,83.335,220.713,124.97c2.213,1.253,4.178,2.914,8.332,5.859c-5.148,3.344-8.481,5.793-12.053,7.779
			c-71.888,40.405-143.852,80.724-215.599,121.304C1719.233,848.61,1715.417,849.961,1711.505,849.961z M1716.065,872.729
			c0.077-10.11,4.704-14.867,12.58-19.474c64.023-37.331,127.885-74.953,191.833-112.489c10.335-6.075,20.769-11.986,33.855-19.528
			c0.217,7.865,0.497,13.012,0.432,18.126c-0.905,81.447-1.996,162.895-2.567,244.375c-0.086,9.409-2.751,15.234-11.188,20.198
			c-71.739,41.861-143.196,84.22-214.748,126.395c-3.098,1.856-6.41,3.301-10.942,5.567c-0.723-4.218-1.931-7.584-1.888-10.919
			C1714.305,1040.89,1715.461,956.809,1716.065,872.729z M1715.828,1422.245c-0.852-90.662-1.683-181.41-2.525-272.396
			c11.922,2.319,209.754,117.7,237.632,138.329c0.787,89.97,1.618,180.632,2.461,274.919
			C1872.143,1514.924,1794.47,1468.833,1715.828,1422.245z M1956.458,1288.13l-0.023-2.754l-2.214-1.638
			c-1.674-1.239-4.149-2.932-7.306-5.009c3.398,1.294,6.638,1.914,9.918,1.914c1.85,0,3.687-0.194,5.559-0.598
			c-3.34,3.326-5.043,7.025-5.91,10.773L1956.458,1288.13z M1959.135,1560.843c-0.311-6.042-0.787-10.584-0.722-15.137
			c0.885-81.966,1.932-163.877,2.707-245.778c0.086-8.394,1.35-14.512,9.722-19.399c73.462-42.866,146.656-86.303,219.991-129.535
			c1.779-1.047,3.733-1.781,6.937-3.269c0.756,3.82,2.017,7.099,1.963,10.337c-0.851,84.511-1.952,169.056-2.697,253.578
			c-0.066,7.866-3.117,12.407-9.733,16.303c-72.944,42.736-145.76,85.784-218.652,128.651
			C1966.072,1558.102,1963.246,1559.041,1959.135,1560.843z M2427.203,1576.51c-70.993,39.887-142.094,79.592-212.871,119.825
			c-4.69,2.656-8.785,4.007-12.9,4.007c-4.09,0-8.201-1.335-12.94-4.052c-70.615-40.48-141.62-80.292-212.472-120.375
			c-3.992-2.276-7.779-4.92-13.249-8.404c4.845-3.302,8.361-6.085,12.172-8.276c71.899-40.416,143.872-80.715,215.696-121.228
			c4.209-2.36,7.947-3.845,11.891-3.845c3.032,0,6.187,0.877,9.774,2.907c72.967,41.7,146.204,82.871,219.334,124.27
			c2.654,1.478,5.038,3.377,10.077,6.873C2435.316,1571.869,2431.303,1574.253,2427.203,1576.51z M2444.164,1562.364
			c-6.948-3.852-11.566-6.301-16.064-8.987c-69.148-40.913-138.189-82.139-207.596-122.705
			c-9.775-5.708-13.746-11.848-13.777-23.392c-0.195-80.952-1.198-161.817-1.878-242.779c-0.043-5.027,0.367-10.088,0.647-17.004
			c5.222,2.449,8.956,3.906,12.365,5.934c71.424,42.284,142.816,84.684,214.285,126.87c6.743,3.97,11.016,7.854,11.048,16.864
			c0.398,84.642,1.348,169.207,2.082,253.784C2445.296,1553.927,2444.714,1556.904,2444.164,1562.364z M2448.205,1291.783
			c-1.265-6.318-4.719-10.277-8.655-13.232c2.891,0.912,5.673,1.352,8.454,1.352c2.966,0,5.938-0.502,9.046-1.547
			C2451.497,1282.203,2449.153,1286.888,2448.205,1291.783z M2450.388,1549.266c0.885-83.486,1.922-166.984,2.741-250.471
			c0.054-7.39,1.521-12.72,8.567-16.853c74.315-43.555,148.48-87.423,222.699-131.163c1.327-0.788,2.891-1.143,6.581-2.557
			c0.325,5.698,0.788,9.753,0.723,13.799c-0.927,82.441-1.984,164.902-2.728,247.321c-0.087,8.513-1.587,14.49-9.842,19.334
			c-73.052,42.618-145.803,85.752-218.653,128.705c-2.233,1.306-4.671,2.308-8.62,4.272
			C2451.262,1556.884,2450.356,1553.064,2450.388,1549.266z M2917.712,1576.94c-70.584,39.682-141.221,79.225-211.706,119.07
			c-4.644,2.65-8.785,4.537-13.275,4.537c-3.023,0-6.204-0.855-9.803-2.908c-72.999-41.765-146.312-82.968-219.495-124.378
			c-2.687-1.522-5.135-3.464-9.137-6.139c3.97-3.021,6.883-5.826,10.271-7.714c71.909-40.492,143.959-80.779,215.761-121.507
			c4.665-2.633,8.769-4.133,13.002-4.133c3.612,0,7.317,1.093,11.544,3.506c72.083,41.226,144.5,81.891,216.744,122.802
			c3.119,1.748,5.989,3.96,11.804,7.833C2926.57,1571.848,2922.179,1574.48,2917.712,1576.94z M2935.148,1561.274
			c-40.373-21.859-78.773-46.027-117.851-68.964c-39.38-23.11-78.599-46.62-118.109-70.044
			c-0.831-91.168-1.663-181.453-2.482-273.603c4.748,1.737,8.177,2.405,11.016,4.089c72.45,42.823,144.717,85.807,217.143,128.607
			c5.795,3.409,9.656,6.733,9.7,14.414c0.442,86.777,1.261,173.49,1.952,260.246
			C2936.54,1557.024,2936.032,1558.005,2935.148,1561.274z"/>
		
			<linearGradient id="SVGID_00000128483288230806506960000016635054121883063727_" gradientUnits="userSpaceOnUse" x1="2654.7649" y1="123.8839" x2="1431.3938" y2="1059.9493">
			<stop  offset="0" style="stop-color:#FFD109"/>
			<stop  offset="1" style="stop-color:#FFFFFF"/>
		</linearGradient>
		
			<path style="opacity:0.5;clip-path:url(#SVGID_00000007405542083813054810000000962301496286109067_);fill:url(#SVGID_00000128483288230806506960000016635054121883063727_);" d="
			M3429.521,1527.11c0.392-1.45,0.722-2.516,0.977-3.342c0.544-1.758,1.013-3.277,0.971-5.174l-0.68-82.787
			c-0.673-80.653-1.344-161.295-1.756-241.982c-0.077-13.682-8.047-19.513-15.508-23.903
			c-45.862-27.103-91.683-54.27-137.509-81.441c-44.498-26.383-89.001-52.768-133.558-79.105c-2.97-1.762-6.146-2.772-9.508-3.84
			c-1.627-0.518-3.411-1.082-5.384-1.805l-1.408-0.515l-0.01-1.145l2.965-1.401c2.052-0.969,3.759-1.732,5.232-2.39
			c2.817-1.26,4.881-2.203,6.8-3.34l80.824-47.617c64.02-37.737,128.025-75.466,192.17-112.926
			c13.989-8.19,15.988-19.22,16.067-29.922c0.538-64.598,1.285-129.23,2.034-193.877c0.451-38.926,0.901-77.858,1.306-116.793
			c0.063-3.841-0.465-7.503-1.022-11.383c-0.244-1.691-0.501-3.462-0.718-5.356l-0.137-1.204l5.072-2.93l-2.076-1.374l-0.08-8.492
			l-1.937-207.476l-1.255-134.87l-0.036-3.884l-3.341-1.983c-86.442-51.276-172.114-102.045-259.251-153.682l-36.481-21.619
			l-0.992-0.587c1.439-0.43,2.507-0.713,3.336-0.932c1.687-0.449,3.021-0.803,4.467-1.624l62.719-36.924
			c72.369-42.613,144.719-85.213,217.173-127.676c9.543-5.602,13.854-13.334,13.98-25.069c0.524-54.378,1.127-108.749,1.728-163.118
			c0.573-51.817,1.148-103.634,1.654-155.447c0.041-3.379-0.884-6.351-1.779-9.225c-0.348-1.12-0.714-2.286-1.019-3.529l-0.9-3.669
			l3.984-2.546l-8.868-5.847c-2.305-1.52-4.363-2.952-6.287-4.289c-3.348-2.327-6.51-4.524-9.876-6.426l-72.369-40.874
			c-63.84-36.035-129.855-73.298-194.542-110.31c-6.846-3.911-12.812-5.732-18.78-5.732c-5.904,0-11.805,1.781-18.573,5.606
			c-67.986,38.609-137.317,77.48-204.365,115.071l-61.404,34.439c-3.396,1.898-6.782,3.859-10.705,6.13l-8.059,4.65l-5.823,3.34
			l-2.937-1.841c-2.153-1.349-4.114-2.604-5.955-3.784c-3.905-2.499-7.293-4.664-10.784-6.639
			c-24.568-13.9-49.152-27.776-73.735-41.652c-62.339-35.185-126.803-71.569-189.941-107.781
			c-7.906-4.571-14.782-6.704-21.617-6.704c-6.717,0-13.425,2.036-21.107,6.41c-65.057,37.209-131.521,74.529-195.799,110.619
			c-22.767,12.783-45.535,25.567-68.289,38.373c-4.953,2.799-9.846,5.63-17.336,9.966l-4.305,2.493l-4.194-2.486l0.015,1.655
			c-2.571-1.695-4.734-3.169-6.654-4.477c-3.549-2.42-6.324-4.298-9.216-5.949c-25.08-14.188-50.152-28.345-75.227-42.502
			c-63.538-35.876-129.239-72.973-193.637-109.8c-6.538-3.77-12.365-5.532-18.315-5.532c-6.028,0-12.112,1.867-19.15,5.875
			c-60.493,34.321-121.128,68.379-181.761,102.436c-29.769,16.721-59.539,33.442-89.289,50.194c-3.02,1.69-5.453,3.793-8.272,6.228
			c-1.339,1.157-2.806,2.427-4.517,3.796l-2.734,2.185l-0.08-0.937l-1.02,0.482l-2.774-1.449l-0.022,0.55l-1.701-1.173
			c-1.679-1.16-3.122-2.197-4.426-3.135c-2.585-1.859-4.817-3.463-7.298-4.875c-28.008-15.852-56.019-31.672-84.031-47.492
			c-62.261-35.163-126.64-71.523-189.763-107.561c-5.442-3.11-10.602-4.621-15.778-4.621c-7.187,0-13.455,3.013-18.114,5.64
			c-62.401,35.251-124.92,70.33-187.435,105.407l-81.816,45.927c-3.566,1.978-7.122,4.048-12.092,6.944l-4.405,2.562l-3.66,2.127
			l-2.687-1.594l-0.138,3.238l-2.917,1.694l2.76,1.903l-0.201,4.681c-0.16,3.678-0.333,6.843-0.486,9.679
			c-0.286,5.268-0.511,9.448-0.49,13.64l0.731,78.72c0.704,73.571,1.429,149.647,1.68,224.477
			c0.03,15.786,5.772,25.532,19.815,33.632c54.801,31.98,110.354,64.963,164.076,96.861l46.038,27.322l39.027,23.145l31.242,18.534
			l-0.943,0.542l-19.065,10.934c-16.91,9.688-32.711,18.741-48.403,27.958c-30.389,17.806-60.771,35.646-91.154,53.488
			c-40.938,24.037-81.879,48.078-122.859,72.05c-9.499,5.541-18.789,12.292-18.877,28.274
			c-0.493,65.842-1.239,131.688-1.985,197.542c-0.458,40.436-0.918,80.876-1.315,121.323c-0.054,3.419,0.906,6.461,1.836,9.401
			c0.369,1.166,0.761,2.391,1.091,3.712l2.094,8.349l7.691-3.864c1.731-0.869,3.334-1.643,4.839-2.369
			c3.354-1.618,6.25-3.016,9.134-4.754l74.903-44.243c63.207-37.355,128.567-75.982,193.027-113.677
			c8.87-5.194,13.904-11.456,15.991-20.411l0.047,5.215l0.033,3.886l3.344,1.982c98.555,58.43,195.831,116.064,296.622,175.76
			l10.523,6.232l-0.014-1.338l1.31,0.866c1.807,1.195,3.357,2.262,4.755,3.223c2.67,1.837,4.842,3.318,7.106,4.597l74.791,42.246
			c64.741,36.55,131.685,74.345,197.311,111.812c6.018,3.428,11.637,5.093,17.19,5.093c2.462,0,4.936-0.324,7.488-0.991
			c-5.054,5.119-8.613,12.024-8.693,22.467c-0.498,69.412-1.298,138.823-2.097,208.237c-0.409,35.55-0.82,71.101-1.187,106.653
			c-0.047,3.497,0.71,6.807,1.442,10.008c0.346,1.525,0.717,3.13,1.013,4.858l0.842,4.918l-3.058,2.245l1.802,1.151l-2.281-0.444
			l0.079,8.445l0.887,96.274l2.263,243.782l0.037,3.888l3.344,1.98c64.962,38.483,129.393,76.696,194.941,115.568l101.635,60.271
			l10.523,6.238l-0.013-1.487l1.007,0.641c2.3,1.464,4.357,2.808,6.265,4.055c3.874,2.529,7.164,4.672,10.565,6.611
			c25.308,14.318,50.613,28.596,75.915,42.874c62.136,35.062,126.386,71.316,189.319,107.393c7.107,4.075,13.33,5.972,19.585,5.972
			c6.198,0,12.395-1.875,19.5-5.898c65.855-37.435,133.038-75.123,198.011-111.57l67.716-38.007
			c3.213-1.767,6.436-3.628,10.398-5.916l7.762-4.467l4.617-2.639l0.83,0.459l0.1-0.992l0.311-0.178l2.593,1.733
			c1.843,1.232,3.412,2.336,4.831,3.331c2.599,1.826,4.746,3.318,7.012,4.603c25.105,14.205,50.22,28.389,75.338,42.575
			c65.177,36.812,132.576,74.876,198.651,112.681c5.359,3.056,10.479,4.541,15.663,4.541l0,0c7.452,0,14.012-3.158,19.991-6.57
			c61.161-34.574,122.439-68.981,183.722-103.389l80.532-45.236c3.528-1.943,7.073-4.003,11.396-6.517l8.272-4.79l9.65-5.547
			l-5.208-3.469L3429.521,1527.11z M3423.308,804.425c-0.08,10.858-2.479,18.063-12.648,24.017
			c-91.145,53.228-182.008,106.998-273.032,160.565c-2.748,1.628-5.846,2.773-11.461,5.427c-0.324-7.947-0.823-13.051-0.741-18.129
			c1.145-102.905,2.465-205.836,3.352-308.78c0.107-10.802,2.614-17.887,12.756-23.841
			c90.567-52.921,180.823-106.46,271.176-159.771c3.38-1.967,6.99-3.422,12.244-6.062c0.698,6.088,1.778,10.964,1.695,15.881
			C3425.57,597.338,3424.17,700.915,3423.308,804.425z M1906.421,299.472c-3.3-1.237-6.526-1.844-9.751-1.844
			c-3.723,0-7.476,0.805-11.532,2.496c6.073-4.946,9.607-10.904,11.03-18.62C1897.683,288.67,1900.974,294.444,1906.421,299.472z
			 M1886.308-420.711c3.855,1.269,7.583,1.878,11.344,1.878c3.445,0,6.862-0.506,10.44-1.577
			c-5.815,4.943-9.188,10.845-10.521,18.406C1895.933-409.559,1892.327-415.542,1886.308-420.711z M1902.062,271.195
			c-0.229-101.018-1.467-202.023-2.315-303.042c-0.054-6.343,0.416-12.702,0.725-21.308c6.507,3.018,11.193,4.808,15.424,7.315
			c89.192,52.785,178.303,105.665,267.535,158.41c8.337,4.944,13.793,9.725,13.875,21.039
			c0.472,105.599,1.656,211.183,2.557,316.821c0.054,3.719-0.632,7.49-1.306,14.359c-8.674-4.848-14.426-7.892-20.002-11.233
			c-86.378-51.129-172.54-102.542-259.187-153.185C1907.208,293.258,1902.116,285.715,1902.062,271.195z M3132.921,299.476
			c-3.13-0.979-6.175-1.452-9.254-1.452c-2.857,0-5.734,0.422-8.727,1.293c5.18-4.664,7.554-9.972,8.639-15.319
			C3124.857,291.314,3128.584,296.025,3132.921,299.476z M3115.246-420.205c3.423,1.051,6.725,1.558,10.027,1.558
			c3.749-0.001,7.474-0.646,11.359-1.994c-5.968,4.391-9.517,9.725-11.06,16.739
			C3124.211-411.847,3120.004-416.708,3115.246-420.205z M3138.503,309.515c89.382,51.184,179.221,101.612,268.885,152.363
			c4.444,2.479,8.566,5.562,16.256,10.655c-8.807,5.09-14.372,8.31-19.96,11.515c-87.576,49.11-175.288,98.016-262.595,147.61
			c-6.37,3.605-11.95,5.567-17.644,5.567c-5.153,0.001-10.397-1.606-16.406-5.055c-88.21-50.591-176.944-100.319-265.45-150.384
			c-4.997-2.842-9.725-6.183-16.406-10.478c5.414-3.906,9.132-7.233,13.388-9.644c89.801-50.591,179.706-100.885,269.33-151.784
			c5.707-3.222,10.693-4.958,15.766-4.958C3128.33,304.921,3133.066,306.388,3138.503,309.515z M3117.572,273.58
			c-0.08,10.52-1.79,18.129-12.217,24.177c-91.252,53.256-182.17,107.121-273.194,160.767c-2.735,1.63-5.779,2.761-10.574,5.038
			c-0.782-6.101-1.98-10.924-1.913-15.759c1.091-103.658,2.614-207.344,3.233-311.002c0.107-13.08,4.848-19.948,15.731-26.306
			c89.542-52.287,178.75-105.193,268.09-157.777c3.301-1.968,6.937-3.313,13.307-6.249c0.431,7.891,0.97,12.996,0.93,18.074
			C3119.834,67.556,3118.529,170.581,3117.572,273.58z M2816.996,127.205c-1.102-6.07-3.866-10.837-8.7-14.985
			c2.916,0.951,5.789,1.419,8.67,1.419c2.733,0,5.336-0.437,7.769-1.124C2820.755,116.704,2818.253,121.468,2816.996,127.205z
			 M2819.084,826.887l2.616,1.55c-1.905-0.454-3.811-0.678-5.734-0.678c-2.251,0-4.401,0.32-6.427,0.836
			c2.992-3.295,4.995-7.119,6.125-11.679l0.038,4.1l0.035,3.889L2819.084,826.887z M3100.964-49.492
			c-89.705,50.497-179.557,100.803-269.207,151.447c-5.216,2.945-9.879,4.787-14.791,4.787c-3.804,0-7.755-1.104-12.23-3.656
			c-91.131-52.03-182.547-103.469-273.841-155.07c-3.3-1.86-6.291-4.27-12.607-8.648c7.3-4.203,11.785-6.883,16.338-9.388
			c89.771-50.389,179.57-100.723,269.262-151.313c5.214-2.95,9.894-4.818,14.844-4.818c3.797,0,7.751,1.098,12.229,3.647
			c91.092,52.057,182.493,103.456,273.814,155.043c3.287,1.885,6.291,4.257,11.287,7.704
			C3110.123-55.66,3105.773-52.158,3100.964-49.492z M2529.118-45.666c89.799,53.109,179.517,106.46,269.424,159.434
			c8.31,4.889,12.069,10.049,12.122,20.03c0.634,106.298,1.764,212.651,2.708,318.976c0.012,2.546-0.472,5.146-1.023,11.018
			c-51.305-27.639-99.147-57.918-147.932-86.459c-49.203-28.851-98.15-58.147-147.542-87.523
			c-1.05-113.651-2.061-226.497-3.125-342.021C2520.269-49.465,2525.023-48.09,2529.118-45.666z M2809.062,471.563
			c-16.595,9.576-30.091,17.469-43.735,25.106c-78.943,44.434-158.128,88.438-236.788,133.303
			c-7.044,4.019-13.174,6.218-19.452,6.218c-5.653,0-11.426-1.782-18.101-5.624c-86.955-50.147-174.531-99.174-261.892-148.646
			c-5.564-3.151-10.939-6.626-18.103-11.018c4.807-3.758,7.88-7.031,11.611-9.105c90.338-50.886,180.875-101.503,271.038-152.686
			c5.697-3.219,10.682-4.941,15.748-4.941c4.686,0,9.439,1.472,14.895,4.59c89.395,51.184,179.221,101.639,268.872,152.337
			C2797.598,463.602,2801.68,466.687,2809.062,471.563z M2509.941,285.717l0.038,4.156l0.036,3.88l3.335,1.983l4.715,2.807
			c-2.931-0.857-5.79-1.271-8.677-1.271c-2.054,0-4.116,0.217-6.221,0.659C2506.917,294.171,2508.906,289.971,2509.941,285.717z
			 M2508.134-415.966l-2.599-1.541c2.095,0.539,4.182,0.804,6.286,0.804h0.001c1.891-0.001,3.791-0.217,5.737-0.663
			c-3.246,3.524-5.037,7.395-6.008,11.315l-0.037-4.045l-0.035-3.888L2508.134-415.966z M2504.106,275.883
			c-0.094,9.253-2.087,15.826-10.802,20.984c-92.831,54.307-185.415,109.033-278.069,163.638c-1.657,1.023-3.639,1.401-8.095,3.057
			c-0.394-7.233-0.931-12.339-0.862-17.376c1.129-102.931,2.479-205.808,3.366-308.74c0.107-10.761,2.385-18.035,12.555-23.987
			c91.157-53.285,182.008-107.081,272.924-160.741c2.787-1.657,5.831-2.856,10.25-4.958c0.862,5.065,2.236,9.294,2.168,13.442
			C2506.463,66.115,2505.129,171.012,2504.106,275.883z M2203.661,127.552c-1.489-8.184-5.873-13.285-10.889-17.081
			c3.521,1.091,6.925,1.616,10.35,1.616h0.002c3.887,0,7.722-0.663,11.802-2.08C2208.025,115.16,2204.969,121.236,2203.661,127.552z
			 M2483.742-48.508c-87.443,49.243-175.045,98.163-262.205,147.851c-6.667,3.795-12.473,5.848-18.41,5.848
			c-5.445,0.001-11.001-1.724-17.445-5.416c-88.019-50.699-176.674-100.318-265.128-150.37c-4.495-2.506-8.713-5.522-14.693-9.388
			c3.598-3.085,5.98-5.887,8.983-7.584c92.56-52.099,185.243-103.996,277.802-156.215c4.09-2.329,7.827-3.643,11.646-3.643
			c3.251,0,6.561,0.951,10.203,3.037c93.461,53.135,187.044,106.016,280.587,159.017c1.603,0.942,2.869,2.465,7.167,6.236
			C2494.839-54.865,2489.29-51.646,2483.742-48.508z M2201.562,814.51c1.231,7.527,5.034,12.319,9.474,15.804
			c-3.165-0.993-6.236-1.472-9.338-1.472c-3.041,0-6.096,0.474-9.283,1.458C2197.139,825.989,2200.102,820.878,2201.562,814.51z
			 M2201.698,835.739c4.667,0,9.41,1.462,14.855,4.568c89.408,51.182,179.22,101.637,268.872,152.389
			c4.417,2.506,8.512,5.537,16.299,10.668c-8.823,5.077-14.358,8.324-19.947,11.476c-87.592,49.136-175.289,98.028-262.596,147.636
			c-6.379,3.628-11.949,5.596-17.636,5.596c-5.141,0-10.381-1.611-16.4-5.058c-88.221-50.59-176.944-100.359-265.462-150.41
			c-5.012-2.842-9.78-6.128-16.461-10.398c5.415-3.973,9.132-7.3,13.375-9.697c89.826-50.565,179.719-100.884,269.302-151.784
			C2191.61,837.479,2196.608,835.739,2201.698,835.739z M2492.388,989.33c-90.956-53.81-181.847-107.767-272.818-161.59
			c-7.355-4.297-11.447-8.957-11.53-18.345c-0.593-107.646-1.684-215.318-2.586-322.964c-0.013-1.899,0.487-3.826,1.349-10.143
			c99.766,59.089,197.175,116.832,295.794,175.274c1.037,113.558,2.088,226.955,3.165,342.602
			C2500.146,992.185,2495.89,991.377,2492.388,989.33z M2509.492,651.501l-0.035-3.888l-3.345-1.982l-6.51-3.859
			c3.206,0.886,6.336,1.315,9.485,1.315h0.001c3.551,0,7.072-0.538,10.768-1.678c-5.948,5.243-8.887,11.098-10.299,17.134
			L2509.492,651.501z M2517.883,1361.47c-3.249-1.171-6.427-1.744-9.613-1.744c-4.165,0-7.973,0.982-11.419,2.358
			c6.23-4.692,9.76-10.367,10.975-17.668C2509.426,1351.175,2512.668,1356.669,2517.883,1361.47z M2515.232,670.474
			c0.107-13.038,3.353-21.347,15.529-28.379c89.085-51.775,177.699-104.359,266.461-156.674c3.865-2.275,8.054-4.094,13.751-7.043
			c0.957,5.374,2.357,9.537,2.33,13.67c-1.104,104.939-2.45,209.93-3.407,314.937c-0.08,10.196-2.883,16.809-12.203,22.223
			c-91.174,53.473-182.076,107.324-273.089,161.023c-2.76,1.631-5.791,2.735-11.797,5.483c-0.378-8.688-0.876-14.413-0.849-20.138
			C2513.104,873.873,2514.504,772.207,2515.232,670.474z M2528.338,993.142c91.468-51.384,182.965-102.662,274.407-154.222
			c4.619-2.599,8.821-4.266,13.222-4.266c3.261,0,6.63,0.914,10.362,3.042c92.883,52.865,185.928,105.396,278.892,158.045
			c2.156,1.254,4,3.044,8.837,6.816c-8.029,4.661-13.592,7.934-19.275,11.125c-87.429,49.176-175.072,98.056-262.205,147.84
			c-6.518,3.74-12.179,5.629-17.859,5.629c-5.67,0-11.361-1.882-17.941-5.684c-87.523-50.347-175.611-99.672-263.456-149.401
			c-5.024-2.827-9.78-6.155-16.607-10.491C2521.561,998.018,2524.727,995.203,2528.338,993.142z M2822.597,820.953
			c-1.037-113.316-2.074-226.619-3.124-340.217c15.206,3.258,264.615,148.915,296.645,172.889
			c0.997,112.373,2.021,225.514,3.083,343.006C3018.277,936.868,2921.003,879.234,2822.597,820.953z M3123.042,656.718l-0.027-3.154
			l-0.031-3.414l-2.734-2.046c-2.047-1.532-5.237-3.716-9.408-6.451c4.313,1.67,8.429,2.467,12.604,2.467l0,0
			c2.371,0,4.756-0.268,7.204-0.816C3126.425,647.456,3124.194,652.019,3123.042,656.718z M3124.777,1357.704
			c1.545,0.915,3.088,1.831,4.632,2.746c-2.849-0.815-5.646-1.217-8.429-1.217c-2.24,0-4.468,0.248-6.752,0.764
			c3.871-3.95,6.007-8.406,7.123-13.391l0.047,5.229l0.036,3.886L3124.777,1357.704z M3424.494,120.785
			c1.063,113.626,2.1,227.037,3.192,342.346c-5.023-1.549-8.782-1.939-11.786-3.744c-91.509-54.092-182.951-108.413-274.5-162.465
			c-7.423-4.43-11.356-9.226-11.396-18.519c-0.633-107.646-1.696-215.277-2.572-322.923c-0.013-1.9,0.472-3.826,1.334-9.995
			C3228.544,4.615,3326.02,62.37,3424.494,120.785z M3429.449-571.892c-1.037,106.178-2.357,212.367-3.38,318.558
			c-0.094,8.742-2.748,14.601-10.573,19.194c-93.354,54.712-186.534,109.652-279.808,164.552c-1.116,0.634-2.465,0.769-6.627,2.021
			c-0.363-6.653-0.903-11.704-0.835-16.728c1.118-103.578,2.438-207.143,3.326-310.761c0.095-10.317,3.126-16.716,12.339-22.103
			c91.092-53.378,181.929-107.105,272.871-160.794c2.789-1.656,5.818-2.883,10.09-4.983
			C3427.875-578.762,3429.491-575.34,3429.449-571.892z M2844.942-603.141c88.641-49.755,177.39-99.32,265.788-149.521
			c5.552-3.138,10.364-4.714,15.179-4.714c4.858,0,9.72,1.602,15.355,4.821c88.749,50.78,177.941,100.872,266.945,151.205
			c4.916,2.775,9.429,6.291,15.759,10.466c-6.681,4.27-11.327,7.597-16.284,10.385c-88.573,49.889-177.307,99.457-265.612,149.763
			c-6.102,3.477-11.46,5.191-16.799,5.193c-5.5,0-10.983-1.82-17.25-5.408c-88.156-50.523-176.783-100.305-265.195-150.302
			c-4.916-2.774-9.415-6.303-16.594-11.139C2834.007-596.85,2839.448-600.069,2844.942-603.141z M2822.26-582.668
			c4.405,1.294,8.19,1.656,11.153,3.395c91.51,54.105,182.831,108.345,274.326,162.396c7.462,4.391,11.342,9.268,11.395,18.48
			c0.661,107.591,1.698,215.115,2.573,322.706c0.027,1.94-0.58,3.88-1.386,8.864c-7.031-3.596-12.243-5.953-17.133-8.81
			c-88.076-52.193-175.961-104.534-264.225-156.39c-10.074-5.914-14.762-12.109-14.788-24.487
			c-0.419-103.632-1.59-207.29-2.532-310.895C2821.642-571.946,2822.018-576.498,2822.26-582.668z M2817.996-248.379
			c1.305,6.789,4.436,12.18,9.822,16.889c-3.058-1.043-6.066-1.555-9.085-1.555c-4.044,0-7.805,0.958-11.159,2.268
			C2814.05-235.984,2816.845-242.075,2817.996-248.379z M2814.327-583.88c0.404,7.3,0.944,12.418,0.929,17.497
			c-1.172,102.878-2.491,205.796-3.407,308.753c-0.067,10.709-2.208,18.09-12.431,24.111
			c-91.202,53.136-182.063,106.932-273.075,160.538c-2.748,1.63-5.819,2.801-10.262,4.929c-0.848-5.077-2.169-9.294-2.143-13.468
			c1.065-104.884,2.424-209.769,3.422-314.627c0.093-9.253,2.222-15.879,10.91-20.984
			c92.816-54.349,185.389-109.073,278.043-163.677C2807.971-581.792,2809.95-582.224,2814.327-583.88z M2230.197-602.023
			c88.102-49.58,176.393-98.836,264.118-149.009c6.489-3.694,12.112-5.507,17.695-5.507c5.798,0,11.551,1.954,18.186,5.79
			c87.644,50.266,175.773,99.698,263.712,149.452c5.051,2.856,9.874,6.129,16.474,10.265c-4.418,3.677-7.328,6.976-10.938,8.943
			c-91.55,51.506-183.153,102.81-274.663,154.356c-4.547,2.589-8.683,4.131-12.96,4.131c-3.375,0.001-6.838-0.959-10.664-3.121
			c-92.965-52.907-186.131-105.476-279.187-158.195c-2.195-1.252-4.11-3.07-9.296-7.03
			C2220.284-596.353,2225.214-599.208,2230.197-602.023z M2504.618-410.034c1.037,114.017,2.102,227.104,3.152,344.771
			c-100.844-59.762-198.091-117.397-296.603-175.719c-1.052-113.275-2.103-226.591-3.18-344.905
			C2309.438-525.734,2406.818-468.004,2504.618-410.034z M2204.271-240.919l0.036,3.889l3.347,1.981
			c0.813,0.482,1.622,0.959,2.435,1.441c-1.931-0.477-3.857-0.714-5.797-0.714c-2.054,0-4.101,0.262-6.196,0.801
			c3.303-3.778,5.135-7.864,6.132-12.056L2204.271-240.919z M2201.818-567.245c-1.132,103.659-2.436,207.316-3.368,311.016
			c-0.121,10.748-2.571,17.967-12.74,23.934c-90.137,52.665-179.842,105.936-269.721,158.962c-3.784,2.236-7.893,3.88-14.561,7.005
			c-0.458-7.73-0.995-12.27-0.956-16.795c1.145-103.66,2.586-207.318,3.327-311.016c0.094-11.974,4.096-18.939,14.454-24.986
			c89.554-52.259,178.801-105.085,268.156-157.737c3.787-2.235,7.908-3.919,13.806-6.815
			C2200.902-577.023,2201.871-572.135,2201.818-567.245z M1611.13-600.151c90.352-50.872,180.864-101.462,271.08-152.646
			c5.679-3.235,10.664-4.971,15.736-4.971c4.684,0,9.442,1.479,14.893,4.622c89.407,51.129,179.233,101.598,268.87,152.308
			c4.418,2.518,8.527,5.618,15.906,10.466c-16.607,9.536-30.074,17.484-43.72,25.16c-78.956,44.368-158.101,88.372-236.761,133.251
			c-7.057,4.029-13.201,6.231-19.481,6.231c-5.647,0-11.405-1.78-18.044-5.611c-86.403-49.876-173.402-98.554-260.211-147.689
			c-6.155-3.489-12.217-7.086-20.136-11.718C1604.367-594.83,1607.399-598.063,1611.13-600.151z M1594.806-584.702
			c7.66,4.001,13.387,6.627,18.803,9.86c86.997,51.465,173.75,103.322,261.044,154.356c12.257,7.152,17.053,14.843,17.078,29.255
			c0.27,101.072,1.511,202.172,2.386,303.23c0.054,6.344-0.515,12.715-0.837,21.457c-7.664-4.013-13.414-6.681-18.803-9.846
			c-86.969-51.493-173.779-103.335-261.073-154.343c-12.243-7.178-16.957-14.923-16.998-29.308
			c-0.296-101.059-1.508-202.118-2.384-303.271C1593.943-569.589,1594.453-575.906,1594.806-584.702z M1888.015-60.536
			c-3.41,3.246-5.522,6.464-8.499,8.121c-92.641,52.153-185.444,104.09-278.031,156.337c-4.044,2.242-7.71,3.438-11.401,3.439
			c-3.381,0-6.778-1.006-10.499-3.13c-93.572-53.175-187.234-106.123-280.833-159.192c-1.683-0.928-3.031-2.436-6.962-5.63
			c6.546-4.269,11.164-7.609,16.15-10.399c88.073-49.565,176.323-98.836,264.101-148.955c6.635-3.775,12.38-5.736,18.185-5.736
			c5.566,0,11.19,1.802,17.711,5.535c87.564,50.347,175.745,99.738,263.685,149.507C1876.713-67.77,1881.562-64.55,1888.015-60.536z
			 M1590.559-249.292c1.621,7.55,5.182,13.529,11.117,18.69c-3.926-1.334-7.685-1.972-11.451-1.972
			c-3.057,0-6.131,0.429-9.315,1.317C1586.915-236.372,1589.551-242.357,1590.559-249.292z M1587.543-566.383
			c-1.062,102.998-2.382,206.025-3.34,309.01c-0.069,10.627-2.047,18.048-12.376,24.095
			c-90.688,52.921-181.025,106.487-271.484,159.812c-3.288,1.926-6.858,3.394-13.51,6.64c-0.229-9.765-0.566-16.177-0.512-22.561
			c1.145-100.412,2.612-200.772,3.124-301.185c0.096-14.829,4.27-23.53,17.591-31.302
			c88.573-51.317,176.553-103.657,264.776-155.636c3.868-2.276,8.041-3.933,14.304-6.896
			C1586.72-577.307,1587.598-571.838,1587.543-566.383z M1001.341-601.175c89.759-50.428,179.638-100.708,269.26-151.338
			c5.213-2.938,9.854-4.751,14.728-4.751c3.842,0,7.829,1.125,12.359,3.714c91.065,51.991,182.536,103.402,273.802,155.056
			c3.312,1.886,6.263,4.27,11.218,7.692c-5.442,3.798-9.293,6.923-13.521,9.334c-90.284,50.766-180.689,101.464-270.905,152.39
			c-5.191,2.913-9.816,4.694-14.66,4.694c-3.869,0-7.878-1.136-12.428-3.737c-91.092-52.004-182.505-103.403-273.787-155.017
			c-3.341-1.911-6.302-4.322-12.473-8.579C992.329-596.016,996.802-598.656,1001.341-601.175z M1276.514,273.755
			c-0.08,11.623-3.031,19.073-13.725,25.335c-89.53,52.355-178.709,105.275-268.008,157.966c-3.867,2.33-8.07,4.135-13.511,6.869
			c-1.104-4.405-2.775-7.866-2.72-11.368c1.051-106.326,2.507-212.596,3.301-318.896c0.068-12.201,6.571-17.173,15.463-22.358
			c71.398-41.768,142.677-83.738,214.024-125.545c21.416-12.58,43.034-24.851,67.411-38.859c0.501,7.665,1.158,12.783,1.105,17.806
			C1278.723,67.718,1277.351,170.729,1276.514,273.755z M1209.505-107.234c-70.011-41.512-139.931-83.226-210.184-124.225
			c-11.518-6.641-16.34-13.995-16.365-27.679c-0.338-101.087-1.523-202.145-2.411-303.204c-0.028-6.344,0.524-12.66,0.969-22.992
			c100.088,59.385,197.389,117.074,295.458,175.154c1.026,113.788,2.049,227.009,3.111,344.81
			C1253.415-81.184,1231.474-94.222,1209.505-107.234z M1283.931-403.297l-0.062-6.947l-0.036-3.889l-3.347-1.982
			c-1.298-0.769-2.59-1.533-3.886-2.302c2.355,0.621,4.688,0.928,7.022,0.928h0.002c2.967,0,5.772-0.509,8.368-1.29
			C1287.995-414.383,1285.375-409.341,1283.931-403.297z M1289.204,289.784c-1.052-114.299-2.074-227.037-3.111-339.033
			c1.832-1.051,2.383-1.454,2.937-1.616c0.421-0.182,0.97-0.369,1.401-0.369c0.146,0,0.279,0.021,0.389,0.072
			c3.544,1.698,7.167,3.273,10.546,5.2c93.598,55.48,187.208,110.986,281.332,166.801c1.037,113.868,2.046,227.009,3.123,344.702
			C1485.03,405.846,1387.758,348.212,1289.204,289.784z M1589.593,120.776l-0.037-3.886l-3.342-1.983l-2.557-1.516
			c2.149,0.58,4.284,0.866,6.428,0.866h0.002c1.783-0.001,3.553-0.193,5.35-0.585c-3.116,3.471-4.854,7.258-5.81,11.086
			L1589.593,120.776z M1591.976,449.325c1.119-104.924,2.41-209.755,3.448-314.665c0.108-9.268,2.195-15.814,10.869-20.972
			c92.832-54.294,185.405-109.073,278.071-163.65c1.645-0.957,3.623-1.401,8.016-3.058c0.417,7.273,0.983,12.351,0.929,17.429
			c-1.144,102.905-2.532,205.85-3.301,308.754c-0.092,11.974-3.865,18.978-14.222,25.038
			c-90.043,52.612-179.773,105.72-269.627,158.587c-3.368,1.979-6.95,3.528-11.96,5.967
			C1593.324,457.689,1591.95,453.501,1591.976,449.325z M1895.279,637.31c-4.323,0-8.742-1.321-13.771-4.185
			c-90.497-51.668-181.4-102.77-272.13-154.073c-3.313-1.871-6.397-4.229-11.451-7.569c4.972-3.731,8.503-7.071,12.637-9.401
			c90.888-51.115,181.859-102.029,272.629-153.321c4.814-2.711,9.094-4.237,13.476-4.237c3.757,0,7.589,1.121,11.898,3.578
			c91.711,52.219,183.679,104.035,275.536,156.012c2.763,1.564,5.216,3.638,10.401,7.315c-6.427,4.175-10.587,7.232-15.046,9.711
			c-89.745,50.441-179.584,100.776-269.153,151.434C1904.926,635.624,1900.163,637.31,1895.279,637.31z M1900.971,665.734
			c0.096-12.621,5.872-18.561,15.705-24.312c79.926-46.604,159.65-93.571,239.483-140.43c12.902-7.583,25.928-14.963,42.265-24.379
			c0.271,9.819,0.621,16.244,0.539,22.629c-1.13,101.678-2.492,203.356-3.204,305.075c-0.107,11.746-3.434,19.018-13.968,25.215
			c-89.558,52.259-178.764,105.14-268.09,157.791c-3.867,2.317-8.002,4.121-13.659,6.95c-0.903-5.266-2.411-9.468-2.357-13.631
			C1898.774,875.664,1900.216,770.699,1900.971,665.734z M1900.675,1351.745c-1.064-113.182-2.101-226.471-3.151-340.056
			c14.883,2.895,261.855,146.935,296.658,172.688c0.983,112.318,2.02,225.501,3.073,343.207
			C2095.817,1467.444,1998.851,1409.905,1900.675,1351.745z M2201.075,1184.317l-0.029-3.438l-2.764-2.045
			c-2.09-1.547-5.179-3.661-9.12-6.253c4.241,1.616,8.287,2.389,12.381,2.389c2.31,0,4.603-0.243,6.94-0.745
			c-4.169,4.153-6.295,8.77-7.378,13.449L2201.075,1184.317z M2204.417,1524.77c-0.389-7.543-0.983-13.213-0.9-18.898
			c1.105-102.326,2.411-204.583,3.379-306.827c0.107-10.479,1.686-18.116,12.137-24.218c91.71-53.514,183.084-107.74,274.635-161.71
			c2.222-1.307,4.66-2.223,8.66-4.081c0.944,4.768,2.519,8.863,2.451,12.904c-1.063,105.503-2.437,211.047-3.366,316.564
			c-0.082,9.82-3.891,15.489-12.151,20.352c-91.063,53.351-181.967,107.093-272.964,160.606
			C2213.078,1521.348,2209.551,1522.521,2204.417,1524.77z M2788.75,1544.327c-88.627,49.795-177.389,99.362-265.747,149.588
			c-5.856,3.316-10.967,5.002-16.104,5.003c-5.106,0-10.238-1.667-16.154-5.058c-88.155-50.536-176.797-100.236-265.249-150.275
			c-4.984-2.841-9.711-6.142-16.54-10.492c6.049-4.121,10.438-7.596,15.195-10.331c89.759-50.456,179.61-100.764,269.273-151.341
			c5.255-2.946,9.92-4.8,14.845-4.8c3.785,0,7.723,1.095,12.201,3.629c91.092,52.059,182.521,103.456,273.815,155.138
			c3.313,1.845,6.289,4.217,12.58,8.58C2798.878,1538.534,2793.868,1541.511,2788.75,1544.327z M2809.924,1526.669
			c-8.674-4.809-14.439-7.866-20.055-11.22c-86.324-51.075-172.513-102.541-259.161-153.183
			c-12.202-7.125-17.16-14.79-17.199-29.201c-0.242-101.061-1.495-202.011-2.344-303.084c-0.054-6.276,0.458-12.594,0.808-21.227
			c6.519,3.057,11.18,4.876,15.437,7.408c89.165,52.786,178.29,105.719,267.511,158.383c8.418,4.957,13.752,9.805,13.792,21.052
			c0.498,105.666,1.684,211.237,2.6,316.821C2811.337,1516.136,2810.611,1519.853,2809.924,1526.669z M2814.969,1188.878
			c-1.578-7.888-5.891-12.83-10.804-16.519c3.609,1.139,7.082,1.688,10.554,1.688c3.703,0,7.413-0.626,11.293-1.931
			C2819.078,1176.917,2816.152,1182.766,2814.969,1188.878z M2817.694,1510.316c1.105-104.223,2.399-208.461,3.422-312.686
			c0.068-9.226,1.899-15.88,10.696-21.04c92.774-54.374,185.362-109.138,278.016-163.743c1.656-0.983,3.61-1.427,8.216-3.193
			c0.405,7.113,0.983,12.176,0.902,17.227c-1.158,102.918-2.477,205.862-3.406,308.754c-0.108,10.627-1.981,18.089-12.286,24.136
			c-91.198,53.203-182.021,107.052-272.965,160.674c-2.787,1.63-5.831,2.882-10.761,5.333
			C2818.784,1519.826,2817.655,1515.058,2817.694,1510.316z M3401.097,1544.865c-88.116,49.539-176.299,98.904-264.291,148.646
			c-5.797,3.308-10.967,5.664-16.573,5.664c-3.774,0-7.745-1.067-12.238-3.631c-91.132-52.139-182.655-103.576-274.016-155.272
			c-3.355-1.9-6.41-4.324-11.407-7.664c4.956-3.771,8.593-7.273,12.822-9.63c89.771-50.55,179.718-100.843,269.354-151.689
			c5.823-3.287,10.948-5.16,16.231-5.16c4.51,0,9.135,1.364,14.412,4.378c89.988,51.466,180.392,102.231,270.582,153.305
			c3.893,2.182,7.476,4.943,14.736,9.778C3412.155,1538.508,3406.674,1541.795,3401.097,1544.865z M3422.863,1525.307
			c-50.401-27.289-98.338-57.459-147.124-86.094c-49.162-28.851-98.122-58.201-147.446-87.442
			c-1.037-113.814-2.076-226.524-3.098-341.564c5.927,2.169,10.208,3.003,13.752,5.105
			c90.446,53.459,180.662,107.12,271.079,160.552c7.234,4.256,12.056,8.405,12.11,17.994c0.551,108.333,1.574,216.583,2.437,324.89
			C3424.601,1520.001,3423.968,1521.226,3422.863,1525.307z"/>
	</g>
</g>
</svg>
